# xmcd
#
# Track frame offsets:
#	150
#	21417
#	41567
#	62275
#	78237
#	93562
#	109895
#	126107
#	139887
#	159310
#	172195
#	190335
#	204255
#	222550
#	239365
#	254385
#	271850
#
# Disc length: 3819 seconds
#
# Revision: 1
# Processed by: cddbd v1.5.2PL0 Copyright (c) Steve Scherf et al.
# Submitted via: audiograbber 1.83.01
#
DISCID=f30ee911
DTITLE=Various Artist - Patriotic Country 3
DYEAR=2008
DGENRE=Country
TTITLE0=Kenny Chesney - A Lot Of Things Different
TTITLE1=John Michael Montgomery - Letters From Home
TTITLE2=Martina McBride - Blessed
TTITLE3=Lonestar - My Front Porch Looking In
TTITLE4=Gretchen Wilson - Politically Uncorrrect
TTITLE5=Tracy Byrd - I´m From The Country
TTITLE6=Diamond Rio - One More Day
TTITLE7=Neal McCoy - The Last Of A Dying Breed
TTITLE8=Kenny Rogers - Long Arm Of The Law
TTITLE9=Merle Haggard and The Strangers - The Fightin´ Side Of Me
TTITLE10=Keni Thomas - Not Me
TTITLE11=LeAnn Rimes - God Bless America
TTITLE12=Tracy Lawrence - If I Don´t Make It Back
TTITLE13=Waylon Jennings - America
TTITLE14=Travis Tritt - What Say You
TTITLE15=Sugarland - Everyday America
TTITLE16=Randy Travis - Heroes And Friends
EXTD=
EXTT0=
EXTT1=
EXTT2=
EXTT3=
EXTT4=
EXTT5=
EXTT6=
EXTT7=
EXTT8=
EXTT9=
EXTT10=
EXTT11=
EXTT12=
EXTT13=
EXTT14=
EXTT15=
EXTT16=
PLAYORDER=
